<?xml version="1.0" encoding="UTF-8" standalone="no"?>
<!-- Created with Inkscape (http://www.inkscape.org/) -->

<svg
   xmlns:dc="http://purl.org/dc/elements/1.1/"
   xmlns:cc="http://creativecommons.org/ns#"
   xmlns:rdf="http://www.w3.org/1999/02/22-rdf-syntax-ns#"
   xmlns:svg="http://www.w3.org/2000/svg"
   xmlns="http://www.w3.org/2000/svg"
   xmlns:sodipodi="http://sodipodi.sourceforge.net/DTD/sodipodi-0.dtd"
   xmlns:inkscape="http://www.inkscape.org/namespaces/inkscape"
   width="744.09448819"
   height="1052.3622047"
   id="svg2"
   version="1.1"
   inkscape:version="0.48.2 r9819"
   sodipodi:docname="Nowy dokument 1">
  <defs
     id="defs4">
    <inkscape:perspective
       sodipodi:type="inkscape:persp3d"
       inkscape:vp_x="0 : 526.18109 : 1"
       inkscape:vp_y="0 : 1000 : 0"
       inkscape:vp_z="744.09448 : 526.18109 : 1"
       inkscape:persp3d-origin="372.04724 : 350.78739 : 1"
       id="perspective2995" />
  </defs>
  <sodipodi:namedview
     id="base"
     pagecolor="#ffffff"
     bordercolor="#666666"
     borderopacity="1.0"
     inkscape:pageopacity="0.0"
     inkscape:pageshadow="2"
     inkscape:zoom="0.49497475"
     inkscape:cx="353.22677"
     inkscape:cy="1365.4271"
     inkscape:document-units="px"
     inkscape:current-layer="layer1"
     showgrid="false"
     showguides="true"
     inkscape:guide-bbox="true"
     inkscape:window-width="1080"
     inkscape:window-height="2449"
     inkscape:window-x="0"
     inkscape:window-y="0"
     inkscape:window-maximized="1">
    <sodipodi:guide
       orientation="1,0"
       position="629.32504,920.24897"
       id="guide2993" />
  </sodipodi:namedview>
  <metadata
     id="metadata7">
    <rdf:RDF>
      <cc:Work
         rdf:about="">
        <dc:format>image/svg+xml</dc:format>
        <dc:type
           rdf:resource="http://purl.org/dc/dcmitype/StillImage" />
        <dc:title></dc:title>
      </cc:Work>
    </rdf:RDF>
  </metadata>
  <g
     inkscape:label="Layer 1"
     inkscape:groupmode="layer"
     id="layer1">
    <path
       style="fill:#aa0000;stroke:#ff8080;stroke-width:2.40000010000000019;stroke-miterlimit:4"
       d="M 146.0625 -56.375 C 142.89776 -56.28845 139.50389 -55.772679 135.875 -54.8125 C 76.432683 -39.084457 132.63151 49.880813 187.6875 141 C 190.30466 41.072339 194.73754 -57.70617 146.0625 -56.375 z M 187.6875 141 C 186.63705 181.10816 185.88076 221.39125 188.96875 255.46875 C 161.11405 235.56936 125.97177 215.87586 90.8125 196.5 C 109.45124 230.82885 128.41284 265.1478 147.59375 292.75 C 148.41788 293.11486 149.23117 293.46634 150.03125 293.875 C 157.49697 297.68858 163.21279 302.42296 167.1875 308.0625 C 171.162 313.64854 173.15614 318.94247 173.15625 323.9375 C 173.15614 326.67684 172.18348 329.09285 170.25 331.1875 C 168.3163 333.2823 165.98915 334.34383 163.25 334.34375 C 160.18838 334.34383 157.87002 333.60652 156.3125 332.15625 C 154.8085 330.70613 153.09854 328.20126 151.21875 324.65625 C 148.10342 318.80185 144.43058 314.43173 140.1875 311.53125 C 135.99797 308.63096 130.83294 307.1876 124.65625 307.1875 C 114.8271 307.1876 106.97945 310.90928 101.125 318.375 C 98.762979 321.41503 96.900228 324.98058 95.5 329.0625 C 108.90355 336.53749 121.97544 343.3647 134.5 349.15625 C 121.80098 354.93216 108.51169 361.76364 94.90625 369.25 C 95.321796 370.61157 95.760532 371.91957 96.28125 373.15625 C 98.85933 379.22561 102.52339 383.77346 107.25 386.78125 C 111.97651 389.78908 117.5058 391.28127 123.84375 391.28125 C 130.71868 391.28127 136.52336 389.60256 141.25 386.21875 C 146.03019 382.78127 149.61417 377.76273 152.03125 371.15625 C 153.05166 368.04106 154.3085 365.49613 155.8125 363.5625 C 157.31631 361.57524 159.73232 360.5938 163.0625 360.59375 C 165.90907 360.5938 168.36513 361.57524 170.40625 363.5625 C 172.44715 365.54985 173.46864 368.04594 173.46875 371 C 173.46864 374.7598 172.53602 378.84573 170.65625 383.25 C 168.82997 387.60061 165.912 391.88185 161.9375 396.125 C 157.97671 400.29979 152.92859 403.68445 146.78125 406.3125 C 127.58204 433.68404 108.54954 467.61913 89.84375 501.5625 C 125.11314 482.4131 160.40121 462.90588 188.375 443.1875 C 185.0706 477.25063 185.57572 517.53173 186.375 557.65625 C 207.33901 523.44629 228.16851 488.93034 242.53125 457.875 C 256.70534 489.03047 277.27542 523.71138 298.03125 558.0625 C 299.08258 517.92916 299.84205 477.62686 296.75 443.53125 C 324.6031 463.42711 359.75308 483.15879 394.90625 502.53125 C 375.75623 467.26043 356.28161 431.97767 336.5625 404 C 350.9633 405.39586 366.48021 406.10514 382.625 406.40625 C 381.77233 405.57424 380.99664 404.65523 380.28125 403.625 C 378.9921 401.69141 377.22452 398.85353 374.96875 395.09375 L 365.375 379.125 C 361.93743 373.27055 358.86419 368.81156 356.125 365.75 C 353.43939 362.68852 350.69916 360.59673 347.90625 359.46875 C 345.11323 358.34087 341.58687 357.7813 337.34375 357.78125 L 328.96875 357.78125 L 328.96875 395.71875 C 328.96871 400.71388 327.85836 404.38672 325.65625 406.75 C 323.45407 409.11328 320.57614 410.3125 317.03125 410.3125 C 313.21775 410.3125 310.2822 409.06445 308.1875 406.59375 C 306.09275 404.12305 305.03123 400.49903 305.03125 395.71875 L 305.03125 304.84375 C 305.03123 299.68761 306.19042 295.96593 308.5 293.65625 C 310.80955 291.34679 314.53123 290.18762 319.6875 290.1875 L 340.6875 290.1875 C 359.2861 263.27335 377.71129 230.37151 395.84375 197.46875 C 360.57436 216.61815 325.31754 236.09412 297.34375 255.8125 C 300.6455 221.7519 300.14295 181.46125 299.34375 141.34375 C 278.37388 175.56292 257.55459 210.06092 243.1875 241.125 C 229.01772 209.97871 208.43718 175.34129 187.6875 141 z M 299.34375 141.34375 C 354.96658 50.576989 411.71409 -38.056922 352.375 -54.15625 C 293.03425 -70.256028 297.2234 34.907581 299.34375 141.34375 z M 395.84375 197.46875 C 489.39858 146.67345 582.87105 98.299778 539.53125 54.6875 C 496.18905 11.072814 447.22748 104.22895 395.84375 197.46875 z M 394.90625 502.53125 C 445.69676 596.07802 494.07897 689.52358 537.6875 646.1875 C 581.29781 602.84966 488.13667 553.90933 394.90625 502.53125 z M 298.03125 558.0625 C 295.24375 664.47252 290.40914 769.56976 349.84375 753.84375 C 409.27922 738.11752 353.08116 649.17069 298.03125 558.0625 z M 186.375 557.65625 C 130.74602 648.43396 73.997829 737.05507 133.34375 753.15625 C 192.68671 769.25663 188.49528 664.09648 186.375 557.65625 z M 89.84375 501.5625 C -3.7110793 552.3578 -97.152303 600.70022 -53.8125 644.3125 C -10.473879 687.92359 38.464657 594.7946 89.84375 501.5625 z M 90.8125 196.5 C 40.017204 102.94517 -8.3564699 9.5039481 -51.96875 52.84375 C -95.579838 96.18237 -2.419599 145.12091 90.8125 196.5 z M -128.46875 214.75 C -129.0609 214.75063 -129.63933 214.76058 -130.21875 214.78125 C -145.36742 215.32175 -156.14371 222.79172 -160.8125 240 C -176.9107 299.33495 -71.769257 295.12055 34.65625 293 C -28.771788 254.13027 -91.163067 214.71034 -128.46875 214.75 z M 34.65625 293 C 48.18198 301.28879 61.735758 309.55507 75.125 317.40625 C 77.575687 312.60812 80.579995 308.31404 84.1875 304.59375 C 89.201956 299.37043 95.090392 295.37897 101.78125 292.59375 C 80.119308 292.22123 57.364716 292.54753 34.65625 293 z M 613.15625 217.125 C 575.64654 218.10724 514.01944 256.49276 451.375 294.34375 C 557.79568 297.13112 662.91504 301.97168 647.1875 242.53125 C 642.27249 223.95552 630.20612 216.67853 613.15625 217.125 z M 451.375 294.34375 C 427.9955 293.7314 404.57637 293.21016 382.34375 293.5 C 382.4595 293.55095 382.57281 293.60394 382.6875 293.65625 C 386.39346 295.21398 389.68448 297.44347 392.53125 300.34375 C 395.37783 303.24424 397.51845 306.63291 398.96875 310.5 C 400.47255 314.31357 401.21865 318.35947 401.21875 322.65625 C 401.21875 323.09037 401.19964 323.51199 401.1875 323.9375 C 417.69247 314.5985 434.56726 304.49931 451.375 294.34375 z M 210.125 290.1875 L 240.8125 290.1875 C 249.88958 290.18762 256.89347 290.88488 261.78125 292.28125 C 266.61514 293.62414 270.7587 295.85363 274.25 298.96875 C 277.79482 302.08409 280.48623 305.89463 282.3125 310.40625 C 284.13857 314.91806 285.06239 319.98544 285.0625 325.625 C 285.06239 337.65632 281.34951 346.80084 273.9375 353.03125 C 266.52531 359.20806 255.47551 362.28129 240.8125 362.28125 L 218.90625 362.28125 L 218.90625 395.71875 C 218.90621 400.49903 217.78707 404.12305 215.53125 406.59375 C 213.27536 409.06445 210.43747 410.3125 207 410.3125 C 203.40134 410.3125 200.48338 409.1045 198.28125 406.6875 C 196.07908 404.21681 194.96874 400.60157 194.96875 395.875 L 194.96875 304.84375 C 194.96874 299.58018 196.17675 295.81847 198.59375 293.5625 C 201.01073 291.30676 204.8613 290.18762 210.125 290.1875 z M 218.90625 308.15625 L 218.90625 344.25 L 235.03125 344.25 C 240.67084 344.25006 245.36517 343.65045 249.125 342.46875 C 252.93841 341.28718 255.82512 339.34186 257.8125 336.65625 C 259.79973 333.97078 260.81242 330.47566 260.8125 326.125 C 260.81242 320.91513 259.2802 316.65146 256.21875 313.375 C 252.78118 309.88388 245.71966 308.15635 235.03125 308.15625 L 218.90625 308.15625 z M 328.96875 308.15625 L 328.96875 340.625 L 350.40625 340.625 C 356.15326 340.62507 360.98528 340.12311 364.90625 339.15625 C 368.82707 338.13581 371.80265 336.45711 373.84375 334.09375 C 375.93839 331.67684 376.96866 328.37704 376.96875 324.1875 C 376.96866 320.91123 376.1337 318.03329 374.46875 315.5625 C 372.80363 313.03818 370.51652 311.1417 367.5625 309.90625 C 364.76946 308.72471 359.24896 308.15635 351.03125 308.15625 L 328.96875 308.15625 z M 385.21875 367.1875 C 388.32199 370.93982 391.14966 374.86868 393.65625 379.03125 C 396.71767 383.97268 399.08485 388.4717 400.75 392.5 C 402.46864 396.47462 403.31239 399.21485 403.3125 400.71875 C 403.31239 402.27637 402.80165 403.84864 401.78125 405.40625 C 401.51535 405.81983 401.229 406.19767 400.90625 406.5625 C 417.34864 406.59139 434.20765 406.33584 451.0625 406 C 428.89685 392.41653 406.61261 378.92465 385.21875 367.1875 z M 451.0625 406 C 541.81948 461.61734 630.40233 518.36424 646.5 459.03125 C 662.59821 399.6963 557.48801 403.87945 451.0625 406 z M 74.75 380.65625 C 61.375024 388.38955 47.824384 396.52327 34.3125 404.6875 C 56.192023 405.26065 78.110738 405.73974 99.0625 405.5625 C 97.372344 404.82013 95.750543 403.9843 94.1875 403.0625 C 90.051728 400.53809 86.241185 397.23829 82.75 393.15625 C 79.634746 389.45021 76.983382 385.31545 74.78125 380.75 C 74.767241 380.72062 74.763966 380.68566 74.75 380.65625 z M 34.3125 404.6875 C -72.097518 401.9 -177.19476 397.06538 -161.46875 456.5 C -145.74252 515.93547 -56.795695 459.73741 34.3125 404.6875 z "
       id="path2987"
       inkscape:export-filename="/Users/teofil/git-repository/cpr-station/src/main/resources/images/cpr-logo.256.png"
       inkscape:export-xdpi="28.299065"
       inkscape:export-ydpi="28.299065" />
    <g
       style="font-size:165px;font-style:normal;font-variant:normal;font-weight:bold;font-stretch:normal;line-height:125%;letter-spacing:0px;word-spacing:0px;fill:#ffffff;fill-opacity:1;stroke:none;font-family:Arial Rounded MT Bold;-inkscape-font-specification:Arial Rounded MT Bold"
       id="text2989"
       transform="translate(-5.7327185,-0.73736522)" />
  </g>
</svg>
